name rise30.6535peak61.5555fall82.9339.mot
datacolumns 19
datarows 27
range 2.41831600000000 2.46166100000000
endheader
time	ground_force1_vx	ground_force1_vy	ground_force1_vz	ground_force1_px	ground_force1_py	ground_force1_pz	ground_force2_vx	ground_force2_vy	ground_force2_vz	ground_force2_px	ground_force2_py	ground_force2_pz	ground_torque1_x	ground_torque1_y	ground_torque1_z	ground_torque2_x	ground_torque2_y	ground_torque2_z	
2.41831600000000	4.48582600000000	707.33449700000006	43.19127300000000	0.18178200000000	0.00000000000000	0.12103000000000	0.00000000000000	0.00000000000000	0.00000000000000	0.00000000000000	0.00000000000000	0.00000000000000	0.00000000000000	15.13270600000000	0.00000000000000	0.00000000000000	0.00000000000000	0.00000000000000	
2.41998400000000	3.95464500000000	708.40503999999999	43.27315200000000	0.18061900000000	0.00000000000000	0.12108500000000	0.00000000000000	0.00000000000000	0.00000000000000	0.00000000000000	0.00000000000000	0.00000000000000	0.00000000000000	15.20783500000000	0.00000000000000	0.00000000000000	0.00000000000000	0.00000000000000	
2.42166000000000	3.41217900000000	709.49891300000002	43.36004300000000	0.17944300000000	0.00000000000000	0.12114100000000	0.00000000000000	0.00000000000000	0.00000000000000	0.00000000000000	0.00000000000000	0.00000000000000	0.00000000000000	15.28674200000000	0.00000000000000	0.00000000000000	0.00000000000000	0.00000000000000	
2.42331700000000	2.85867600000000	710.61500000000001	43.45169600000000	0.17825600000000	0.00000000000000	0.12119800000000	0.00000000000000	0.00000000000000	0.00000000000000	0.00000000000000	0.00000000000000	0.00000000000000	0.00000000000000	15.36933000000000	0.00000000000000	0.00000000000000	0.00000000000000	0.00000000000000	
2.42499000000000	2.29441000000000	711.75225899999998	43.54786600000000	0.17706100000000	0.00000000000000	0.12125500000000	0.00000000000000	0.00000000000000	0.00000000000000	0.00000000000000	0.00000000000000	0.00000000000000	0.00000000000000	15.45549800000000	0.00000000000000	0.00000000000000	0.00000000000000	0.00000000000000	
2.42666300000000	1.71968200000000	712.90972599999998	43.64830600000000	0.17585800000000	0.00000000000000	0.12131200000000	0.00000000000000	0.00000000000000	0.00000000000000	0.00000000000000	0.00000000000000	0.00000000000000	0.00000000000000	15.54514600000000	0.00000000000000	0.00000000000000	0.00000000000000	0.00000000000000	
2.42832900000000	1.13481800000000	714.08651299999997	43.75277300000000	0.17464900000000	0.00000000000000	0.12137000000000	0.00000000000000	0.00000000000000	0.00000000000000	0.00000000000000	0.00000000000000	0.00000000000000	0.00000000000000	15.63817000000000	0.00000000000000	0.00000000000000	0.00000000000000	0.00000000000000	
2.42998700000000	0.54016700000000	715.28180899999995	43.86102900000000	0.17343600000000	0.00000000000000	0.12142800000000	0.00000000000000	0.00000000000000	0.00000000000000	0.00000000000000	0.00000000000000	0.00000000000000	0.00000000000000	15.73446500000000	0.00000000000000	0.00000000000000	0.00000000000000	0.00000000000000	
2.43166900000000	-0.06390400000000	716.49487499999998	43.97283800000000	0.17222200000000	0.00000000000000	0.12148500000000	0.00000000000000	0.00000000000000	0.00000000000000	0.00000000000000	0.00000000000000	0.00000000000000	0.00000000000000	15.83392200000000	0.00000000000000	0.00000000000000	0.00000000000000	0.00000000000000	
2.43332500000000	-0.67700500000000	717.72505100000001	44.08797100000000	0.17100700000000	0.00000000000000	0.12154300000000	0.00000000000000	0.00000000000000	0.00000000000000	0.00000000000000	0.00000000000000	0.00000000000000	0.00000000000000	15.93643400000000	0.00000000000000	0.00000000000000	0.00000000000000	0.00000000000000	
2.43498300000000	-1.29873200000000	718.97174299999995	44.20620400000000	0.16979400000000	0.00000000000000	0.12160100000000	0.00000000000000	0.00000000000000	0.00000000000000	0.00000000000000	0.00000000000000	0.00000000000000	0.00000000000000	16.04189000000000	0.00000000000000	0.00000000000000	0.00000000000000	0.00000000000000	
2.43667200000000	-1.92866700000000	720.23443099999997	44.32732000000000	0.16858400000000	0.00000000000000	0.12165800000000	0.00000000000000	0.00000000000000	0.00000000000000	0.00000000000000	0.00000000000000	0.00000000000000	0.00000000000000	16.15017500000000	0.00000000000000	0.00000000000000	0.00000000000000	0.00000000000000	
2.43832000000000	-2.56637500000000	721.51265999999998	44.45110800000000	0.16737900000000	0.00000000000000	0.12171500000000	0.00000000000000	0.00000000000000	0.00000000000000	0.00000000000000	0.00000000000000	0.00000000000000	0.00000000000000	16.26117700000000	0.00000000000000	0.00000000000000	0.00000000000000	0.00000000000000	
2.43999200000000	-3.21141500000000	722.80603900000006	44.57736500000000	0.16618000000000	0.00000000000000	0.12177200000000	0.00000000000000	0.00000000000000	0.00000000000000	0.00000000000000	0.00000000000000	0.00000000000000	0.00000000000000	16.37477700000000	0.00000000000000	0.00000000000000	0.00000000000000	0.00000000000000	
2.44167500000000	-3.86333200000000	724.11423800000000	44.70590000000000	0.16498900000000	0.00000000000000	0.12182800000000	0.00000000000000	0.00000000000000	0.00000000000000	0.00000000000000	0.00000000000000	0.00000000000000	0.00000000000000	16.49085700000000	0.00000000000000	0.00000000000000	0.00000000000000	0.00000000000000	
2.44332200000000	-4.52166800000000	725.43698099999995	44.83652700000000	0.16380700000000	0.00000000000000	0.12188400000000	0.00000000000000	0.00000000000000	0.00000000000000	0.00000000000000	0.00000000000000	0.00000000000000	0.00000000000000	16.60929700000000	0.00000000000000	0.00000000000000	0.00000000000000	0.00000000000000	
2.44498300000000	-5.18595500000000	726.77404600000000	44.96907400000000	0.16263500000000	0.00000000000000	0.12194000000000	0.00000000000000	0.00000000000000	0.00000000000000	0.00000000000000	0.00000000000000	0.00000000000000	0.00000000000000	16.72997400000000	0.00000000000000	0.00000000000000	0.00000000000000	0.00000000000000	
2.44666300000000	-5.85572600000000	728.12525800000003	45.10337800000000	0.16147500000000	0.00000000000000	0.12199400000000	0.00000000000000	0.00000000000000	0.00000000000000	0.00000000000000	0.00000000000000	0.00000000000000	0.00000000000000	16.85276400000000	0.00000000000000	0.00000000000000	0.00000000000000	0.00000000000000	
2.44832000000000	-6.53050700000000	729.49048400000004	45.23928900000000	0.16032700000000	0.00000000000000	0.12204800000000	0.00000000000000	0.00000000000000	0.00000000000000	0.00000000000000	0.00000000000000	0.00000000000000	0.00000000000000	16.97754000000000	0.00000000000000	0.00000000000000	0.00000000000000	0.00000000000000	
2.44998300000000	-7.20982500000000	730.86962800000003	45.37666800000000	0.15919300000000	0.00000000000000	0.12210200000000	0.00000000000000	0.00000000000000	0.00000000000000	0.00000000000000	0.00000000000000	0.00000000000000	0.00000000000000	17.10417300000000	0.00000000000000	0.00000000000000	0.00000000000000	0.00000000000000	
2.45168000000000	-7.89321000000000	732.26262899999995	45.51539000000000	0.15807300000000	0.00000000000000	0.12215400000000	0.00000000000000	0.00000000000000	0.00000000000000	0.00000000000000	0.00000000000000	0.00000000000000	0.00000000000000	17.23253500000000	0.00000000000000	0.00000000000000	0.00000000000000	0.00000000000000	
2.45332500000000	-8.58019000000000	733.66944899999999	45.65534200000000	0.15696800000000	0.00000000000000	0.12220600000000	0.00000000000000	0.00000000000000	0.00000000000000	0.00000000000000	0.00000000000000	0.00000000000000	0.00000000000000	17.36249200000000	0.00000000000000	0.00000000000000	0.00000000000000	0.00000000000000	
2.45498400000000	-9.27029800000000	735.09007399999996	45.79642700000000	0.15587800000000	0.00000000000000	0.12225700000000	0.00000000000000	0.00000000000000	0.00000000000000	0.00000000000000	0.00000000000000	0.00000000000000	0.00000000000000	17.49391100000000	0.00000000000000	0.00000000000000	0.00000000000000	0.00000000000000	
2.45667700000000	-9.96307400000000	736.52450499999998	45.93856000000000	0.15480500000000	0.00000000000000	0.12230800000000	0.00000000000000	0.00000000000000	0.00000000000000	0.00000000000000	0.00000000000000	0.00000000000000	0.00000000000000	17.62665600000000	0.00000000000000	0.00000000000000	0.00000000000000	0.00000000000000	
2.45832200000000	-10.65805800000000	737.97275100000002	46.08167200000000	0.15374700000000	0.00000000000000	0.12235700000000	0.00000000000000	0.00000000000000	0.00000000000000	0.00000000000000	0.00000000000000	0.00000000000000	0.00000000000000	17.76059000000000	0.00000000000000	0.00000000000000	0.00000000000000	0.00000000000000	
2.45998400000000	-11.35480200000000	739.43482700000004	46.22570800000000	0.15270600000000	0.00000000000000	0.12240600000000	0.00000000000000	0.00000000000000	0.00000000000000	0.00000000000000	0.00000000000000	0.00000000000000	0.00000000000000	17.89557300000000	0.00000000000000	0.00000000000000	0.00000000000000	0.00000000000000	
2.46166100000000	-12.05286100000000	740.91074500000002	46.37062900000000	0.15168200000000	0.00000000000000	0.12245400000000	0.00000000000000	0.00000000000000	0.00000000000000	0.00000000000000	0.00000000000000	0.00000000000000	0.00000000000000	18.03146400000000	0.00000000000000	0.00000000000000	0.00000000000000	0.00000000000000	
